<?xml version="1.0" ?><!DOCTYPE svg  PUBLIC '-//W3C//DTD SVG 1.1//EN'  'http://www.w3.org/Graphics/SVG/1.1/DTD/svg11.dtd'><svg enable-background="new 0 0 128 128" id="Слой_1" version="1.1" viewBox="0 0 128 128" xml:space="preserve" xmlns="http://www.w3.org/2000/svg" xmlns:xlink="http://www.w3.org/1999/xlink"><g><g><polygon fill="#FFFFFF" points="82.5,12.9 63.8,22.4 64.1,22.6 63.8,22.4 63.8,22.4 44.1,12.3 4,36.2 22.6,46.9 22.6,91.2     63.8,69.3 104.4,91.2 104.4,46.9 124,35.6   "/></g><g><path d="M22.6,92.2c-0.2,0-0.4,0-0.5-0.1c-0.3-0.2-0.5-0.5-0.5-0.9V47.4L3.5,37C3.2,36.9,3,36.5,3,36.2    s0.2-0.7,0.5-0.9l40.1-23.9c0.3-0.2,0.7-0.2,1,0l19.3,9.9L82,12c0.3-0.2,0.6-0.1,0.9,0l41.5,22.7c0.3,0.2,0.5,0.5,0.5,0.9    c0,0.4-0.2,0.7-0.5,0.9l-19.1,11v43.8c0,0.4-0.2,0.7-0.5,0.9c-0.3,0.2-0.7,0.2-1,0L63.8,70.4L23.1,92.1    C22.9,92.2,22.8,92.2,22.6,92.2z M6,36.2L23.1,46c0.3,0.2,0.5,0.5,0.5,0.9v42.7l39.7-21.2c0.3-0.2,0.7-0.2,0.9,0l39.1,21.2V46.9    c0-0.4,0.2-0.7,0.5-0.9L122,35.6L82.4,14.1L65,22.9c0,0.1-0.1,0.1-0.1,0.2c-0.3,0.5-0.9,0.6-1.4,0.3l-0.2-0.2c0,0-0.1,0-0.1,0    l-19.1-9.8L6,36.2z" fill="#62355C"/></g><g opacity="0.1"><polygon fill="#121519" points="63.8,22.4 104.4,46.9 104.4,91.2 63.8,69.3   "/></g><g opacity="0.2"><polygon fill="#121519" points="63.8,22.4 22.6,46.9 22.6,91.2 63.8,69.3   "/></g><g><path d="M104.4,92.2c-0.2,0-0.3,0-0.5-0.1l-40.6-22c-0.3-0.2-0.5-0.5-0.5-0.9V22.4c0-0.4,0.2-0.7,0.5-0.9    c0.3-0.2,0.7-0.2,1,0L104.9,46c0.3,0.2,0.5,0.5,0.5,0.9v44.4c0,0.4-0.2,0.7-0.5,0.9C104.7,92.2,104.5,92.2,104.4,92.2z M64.8,68.7    l38.6,20.9V47.4L64.8,24.2V68.7z" fill="#62355C"/></g><g><path d="M22.6,92.2c-0.2,0-0.4,0-0.5-0.1c-0.3-0.2-0.5-0.5-0.5-0.9V46.9c0-0.4,0.2-0.7,0.5-0.9l41.2-24.5    c0.3-0.2,0.7-0.2,1,0c0.3,0.2,0.5,0.5,0.5,0.9v46.9c0,0.4-0.2,0.7-0.5,0.9l-41.2,22C22.9,92.2,22.8,92.2,22.6,92.2z M23.6,47.4    v42.2l39.2-20.9V24.2L23.6,47.4z" fill="#62355C"/></g><g><polygon fill="#D6AB7F" points="63.8,68.8 46.5,62 22.6,46.8 22.6,91.2 63.8,115.7 104.4,91.2 104.4,46.8 86.1,60.4   "/></g><g><path d="M63.8,116.7c-0.2,0-0.4,0-0.5-0.1L22.1,92.1c-0.3-0.2-0.5-0.5-0.5-0.9V46.8c0-0.4,0.2-0.7,0.5-0.9    c0.3-0.2,0.7-0.2,1,0L47,61.1l16.9,6.7l21.8-8.3L103.8,46c0.3-0.2,0.7-0.3,1-0.1c0.3,0.2,0.5,0.5,0.5,0.9v44.4    c0,0.4-0.2,0.7-0.5,0.9l-40.6,24.5C64.2,116.6,64,116.7,63.8,116.7z M23.6,90.7l40.2,23.9l39.6-23.9V48.8L86.7,61.2    c-0.1,0.1-0.2,0.1-0.2,0.1l-22.3,8.5c-0.2,0.1-0.5,0.1-0.7,0l-17.3-6.8c-0.1,0-0.1-0.1-0.2-0.1L23.6,48.7V90.7z" fill="#62355C"/></g><g opacity="0.1"><polygon fill="#121519" points="63.8,115.7 104.4,91.2 104.4,46.8 83.2,61.9 63.8,68.8   "/></g><g><path d="M63.8,116.7c-0.2,0-0.3,0-0.5-0.1c-0.3-0.2-0.5-0.5-0.5-0.9V68.8c0-0.4,0.3-0.8,0.7-0.9L82.8,61l21-15    c0.3-0.2,0.7-0.2,1-0.1c0.3,0.2,0.5,0.5,0.5,0.9v44.4c0,0.4-0.2,0.7-0.5,0.9l-40.6,24.5C64.2,116.6,64,116.7,63.8,116.7z     M64.8,69.5v44.4l38.6-23.2V48.8L83.8,62.7c-0.1,0.1-0.2,0.1-0.2,0.1L64.8,69.5z" fill="#62355C"/></g><g opacity="0.1"><polygon fill="#121519" points="31.6,75.5 63.8,93.7 63.8,68.8 45.4,62.6 22.6,46.8   "/></g><g><polygon fill="#FFFFFF" points="4,57.5 22.6,46.8 63.8,68.8 44,80.1   "/></g><g opacity="0.15"><polygon fill="#121519" points="82.4,86.7 104.4,75.4 104.4,46.9 86.5,60.1 64.1,68.6 63.8,68.8   "/></g><g><polygon fill="#FFFFFF" points="63.8,68.8 82.4,79.5 124,58.1 104.4,46.9   "/></g><g><path d="M44,81.1c-0.2,0-0.3,0-0.5-0.1l-40-22.6C3.2,58.2,3,57.9,3,57.5s0.2-0.7,0.5-0.9L22.1,46    c0.3-0.2,0.7-0.2,1,0l41.2,22c0.3,0.2,0.5,0.5,0.5,0.9s-0.2,0.7-0.5,0.9L44.5,81C44.4,81.1,44.2,81.1,44,81.1z M6,57.5L44,79    l17.7-10.1L22.6,48L6,57.5z" fill="#62355C"/></g><g><path d="M82.4,80.5c-0.2,0-0.3,0-0.5-0.1L63.3,69.7c-0.3-0.2-0.5-0.5-0.5-0.9c0-0.4,0.2-0.7,0.5-0.9l40.6-22    c0.3-0.2,0.7-0.2,1,0l19.6,11.3c0.3,0.2,0.5,0.5,0.5,0.9c0,0.4-0.2,0.7-0.5,0.9L82.9,80.4C82.7,80.5,82.6,80.5,82.4,80.5z     M65.9,68.8l16.6,9.5l39.5-20.3L104.3,48L65.9,68.8z" fill="#62355C"/></g></g></svg>