<?xml version="1.0" encoding="utf-8"?>
<!-- Generator: Adobe Illustrator 23.1.0, SVG Export Plug-In . SVG Version: 6.00 Build 0)  -->
<svg version="1.1" xmlns="http://www.w3.org/2000/svg" xmlns:xlink="http://www.w3.org/1999/xlink" x="0px" y="0px"
	 viewBox="0 0 595.3 595.3" enable-background="new 0 0 595.3 595.3" xml:space="preserve">
<g id="Capa_1">
</g>
<g id="Capa_2">
	<g>
		
			<path fill="#F2CA71" stroke="#F2CA71" stroke-width="2.8221" stroke-linecap="round" stroke-linejoin="round" stroke-miterlimit="10" d="
			M180.8,88.4c0-21.9-21.1-24.5-21.1-24.5c23-4.4,21-24.6,21-24.6s-2,20.2,21,24.6C201.8,63.9,180.7,66.4,180.8,88.4"/>
		
			<path fill="#F2CA71" stroke="#F2CA71" stroke-width="2.8221" stroke-linecap="round" stroke-linejoin="round" stroke-miterlimit="10" d="
			M130,241.8c0-21.9-21.1-24.5-21.1-24.5c23-4.4,21-24.6,21-24.6s-2,20.2,21,24.6C151,217.3,129.9,219.8,130,241.8"/>
		
			<path fill="#F2CA71" stroke="#F2CA71" stroke-width="2.8221" stroke-linecap="round" stroke-linejoin="round" stroke-miterlimit="10" d="
			M70.9,380c0-21.9-21.1-24.5-21.1-24.5c23-4.4,21-24.6,21-24.6s-2,20.2,21,24.6C91.9,355.5,70.7,358.1,70.9,380"/>
		
			<path fill="#F2CA71" stroke="#F2CA71" stroke-width="2.8221" stroke-linecap="round" stroke-linejoin="round" stroke-miterlimit="10" d="
			M543.8,355.4c0-21.9-21.1-24.5-21.1-24.5c23-4.4,21-24.6,21-24.6s-2,20.2,21,24.6C564.8,331,543.7,333.5,543.8,355.4"/>
		
			<path fill="#F2CA71" stroke="#F2CA71" stroke-width="2.8221" stroke-linecap="round" stroke-linejoin="round" stroke-miterlimit="10" d="
			M420.1,90.5c0-13.5-10.8-15.1-10.8-15.1c11.8-2.7,10.8-15.2,10.8-15.2s-1,12.5,10.8,15.2C430.8,75.4,420,77,420.1,90.5"/>
		
			<path fill="#F2CA71" stroke="#F2CA71" stroke-width="1.2111" stroke-linecap="round" stroke-linejoin="round" stroke-miterlimit="10" d="
			M81.3,108.2c0,10.4-8.2,11.6-8.2,11.6c8.9,2.1,8.2,11.7,8.2,11.7s-0.8-9.6,8.2-11.7C89.4,119.8,81.2,118.6,81.3,108.2"/>
		
			<path fill="#F2CA71" stroke="#F2CA71" stroke-width="1.4431" stroke-linecap="round" stroke-linejoin="round" stroke-miterlimit="10" d="
			M409.3,267.3c0-11.2-10.8-12.5-10.8-12.5c11.8-2.2,10.8-12.6,10.8-12.6s-1,10.3,10.8,12.6C420,254.8,409.2,256.1,409.3,267.3"/>
		<circle fill="#F2CA71" cx="167.8" cy="132.5" r="8"/>
		<circle fill="#F2CA71" cx="481.5" cy="184.4" r="8"/>
		<circle fill="#F2CA71" cx="449.1" cy="384.7" r="8"/>
		<circle fill="#F2CA71" cx="138" cy="319.2" r="8"/>
		<circle fill="#F2CA71" cx="39.1" cy="242.2" r="8"/>
		<circle fill="#F2CA71" cx="345.3" cy="14.3" r="8"/>
		<g>
			<path fill="#398087" stroke="#F2CA71" stroke-width="2.8221" stroke-miterlimit="10" d="M290,381.5l-39,1c0,0-28.7-97.1-39-146.5
				c0,0-44-128.7,59-181.3c0,0,11.5-6,22.3-0.5c103.2,52.1,67.6,178.2,67.6,178.2C353,282.2,329,380.6,329,380.6L290,381.5
				L290,381.5z"/>
			<path opacity="0.8" fill="#316567" d="M284.6,51.9c0,0-24.8,1.9-55.6,40.6c0,0-29.9,30.1-21.4,110.8c0,0,9,53,37.8,150l24.8-0.7
				C270.1,352.6,179.8,91.2,284.6,51.9z"/>
			<circle fill="#91D0D3" cx="284.1" cy="151.9" r="32"/>
			<circle fill="none" stroke="#F2CA71" stroke-width="2.8221" stroke-miterlimit="10" cx="284.1" cy="151.9" r="32"/>
			<g>
				<path fill="#C9E2E1" d="M279.2,125c4.1-0.7,8.4-0.3,12.4,1c1,0.3,2,0.7,3,1.1c1,0.4,1.9,1,2.8,1.5c0.9,0.5,1.8,1.2,2.7,1.8
					c0.8,0.7,1.6,1.4,2.5,2.1c0.7,0.8,1.5,1.6,2.2,2.4c0.6,0.9,1.3,1.7,1.9,2.6c0.5,0.9,1.1,1.8,1.6,2.8c0.4,1,0.9,1.9,1.3,2.9
					c1.5,4,2,8.3,1.5,12.4c-0.7-4.1-1.8-7.9-3.5-11.5c-0.4-0.9-1-1.7-1.4-2.6c-0.5-0.8-1.1-1.6-1.6-2.5c-0.6-0.8-1.2-1.5-1.8-2.3
					c-0.7-0.7-1.4-1.4-2-2.1c-2.8-2.7-6.1-4.9-9.7-6.4C287.2,126.4,283.2,125.5,279.2,125z"/>
			</g>
			<path fill="#F7A810" d="M321.9,394.1c0.9,39.1-30.4,69.2-30.4,69.2s-32.7-28.6-33.6-67.7L321.9,394.1z"/>
			<path fill="#F2CA71" d="M291,443.6c-6.3-7.3-15-24.2-19-38.6l36.2-0.8C304.8,418.8,296.9,436,291,443.6z"/>
			<path fill="none" stroke="#F2CA71" stroke-width="2.8221" stroke-miterlimit="10" d="M321.9,394.1c0.9,39.1-30.4,69.2-30.4,69.2
				s-32.7-28.6-33.6-67.7L321.9,394.1z"/>
			<polygon fill="#68959C" stroke="#F2CA71" stroke-width="2.8221" stroke-miterlimit="10" points="242.5,353.3 336.1,351.1 
				329,380.6 251,382.5 			"/>
			<path fill="#5E8084" stroke="#F2CA71" stroke-width="2.8221" stroke-miterlimit="10" d="M216.7,258.8l22.9,83.9L185,387
				c-3.4,2.4-8.1-0.5-7.5-4.6c3.1-22,9.9-69.8,9.9-69.8L216.7,258.8z"/>
			
				<path fill="#68959C" stroke="#F2CA71" stroke-width="2.8221" stroke-linecap="round" stroke-linejoin="round" stroke-miterlimit="10" d="
				M357.5,255.5l-18.9,84.9l56.7,41.6c3.6,2.2,8-0.9,7.3-5c-4.2-21.8-13.2-69.3-13.2-69.3L357.5,255.5z"/>
			<g>
				
					<path fill="none" stroke="#F2CA71" stroke-width="2.8221" stroke-linecap="round" stroke-linejoin="round" stroke-miterlimit="10" d="
					M282.5,80.7c31.3-0.7,40.7-6.3,40.7-6.3S295.3,50.2,281.8,52c0,0-9.9-3-41.1,24C240.7,76,251.2,81.5,282.5,80.7z"/>
			</g>
			<polygon fill="#5E8084" points="244.5,354.8 270.8,354.2 279.3,379.8 252.5,380.4 			"/>
		</g>
		
			<line opacity="0.4" fill="none" stroke="#398087" stroke-width="2.8221" stroke-linecap="round" stroke-linejoin="round" stroke-miterlimit="10" stroke-dasharray="11.2883" x1="335.5" y1="542.9" x2="326.4" y2="438.8"/>
		
			<line fill="none" stroke="#F39200" stroke-width="2.8221" stroke-linecap="round" stroke-linejoin="round" stroke-miterlimit="10" stroke-dasharray="11.2883" x1="363.8" y1="507.2" x2="353.6" y2="391.4"/>
		
			<line opacity="0.4" fill="none" stroke="#398087" stroke-width="2.8221" stroke-linecap="round" stroke-linejoin="round" stroke-miterlimit="10" stroke-dasharray="11.2883" x1="248.8" y1="542.9" x2="257.9" y2="438.8"/>
		
			<line fill="none" stroke="#F39200" stroke-width="2.8221" stroke-linecap="round" stroke-linejoin="round" stroke-miterlimit="10" stroke-dasharray="11.2883" x1="220.5" y1="507.2" x2="230.6" y2="391.4"/>
		
			<line fill="none" stroke="#F39200" stroke-width="2.3395" stroke-linecap="round" stroke-linejoin="round" stroke-miterlimit="10" stroke-dasharray="9.3579" x1="295" y1="589" x2="292.5" y2="492.8"/>
	</g>
</g>
</svg>
